<svg width="128" height="79" viewBox="0 0 128 79" fill="none" xmlns="http://www.w3.org/2000/svg">
<path d="M2.23951 59.9169V43.8522H10.5294C11.4505 43.8522 12.2468 44.0161 12.9181 44.344C13.5894 44.6562 14.1046 45.1012 14.4636 45.6788C14.8383 46.2564 15.0257 46.9434 15.0257 47.7396C15.0257 48.3484 14.9164 48.9105 14.6978 49.4257C14.4793 49.9409 14.1748 50.3702 13.7845 50.7136C13.3942 51.0571 12.9493 51.3147 12.4497 51.4864V51.5801C13.0117 51.705 13.5191 51.9314 13.9719 52.2592C14.4246 52.5871 14.7837 53.0242 15.0491 53.5706C15.3301 54.1014 15.4706 54.7571 15.4706 55.5377C15.4706 56.5837 15.252 57.4268 14.8149 58.0669C14.3778 58.7069 13.7923 59.1753 13.0586 59.4719C12.3248 59.7686 11.4818 59.9169 10.5294 59.9169H2.23951ZM4.46421 57.9966H10.506C11.3022 57.9966 11.9501 57.7936 12.4497 57.3877C12.9493 56.9662 13.1991 56.2715 13.1991 55.3035C13.1991 54.7103 13.0898 54.2185 12.8712 53.8282C12.6527 53.4223 12.3326 53.1257 11.9111 52.9383C11.4896 52.7354 10.9588 52.6339 10.3187 52.6339H4.46421V57.9966ZM4.46421 50.7371H10.1079C10.6387 50.7371 11.0993 50.6356 11.4896 50.4326C11.8799 50.2141 12.1843 49.9174 12.4029 49.5427C12.6371 49.1525 12.7541 48.7153 12.7541 48.2313C12.7541 47.3883 12.5278 46.7716 12.075 46.3813C11.6223 45.9754 11.0212 45.7725 10.2718 45.7725H4.46421V50.7371ZM23.251 60.1979C22.0021 60.1979 20.9483 59.9715 20.0896 59.5188C19.2466 59.0504 18.5987 58.3401 18.1459 57.3877C17.7088 56.4354 17.4902 55.2255 17.4902 53.758C17.4902 52.2748 17.7088 51.0649 18.1459 50.1282C18.5987 49.1759 19.2466 48.4733 20.0896 48.0206C20.9483 47.5522 22.0021 47.3181 23.251 47.3181C24.5 47.3181 25.546 47.5522 26.389 48.0206C27.2477 48.4733 27.8956 49.1759 28.3327 50.1282C28.7698 51.0649 28.9884 52.2748 28.9884 53.758C28.9884 55.2255 28.7698 56.4354 28.3327 57.3877C27.8956 58.3401 27.2477 59.0504 26.389 59.5188C25.546 59.9715 24.5 60.1979 23.251 60.1979ZM23.251 58.465C24.0472 58.465 24.7107 58.3088 25.2415 57.9966C25.7723 57.6844 26.1705 57.2004 26.4359 56.5447C26.7169 55.8734 26.8574 55.0303 26.8574 54.0156V53.5004C26.8574 52.47 26.7169 51.6269 26.4359 50.9712C26.1705 50.3155 25.7723 49.8316 25.2415 49.5193C24.7107 49.2071 24.0472 49.051 23.251 49.051C22.4548 49.051 21.7835 49.2071 21.2371 49.5193C20.7063 49.8316 20.3082 50.3155 20.0428 50.9712C19.7774 51.6269 19.6447 52.47 19.6447 53.5004V54.0156C19.6447 55.0303 19.7774 55.8734 20.0428 56.5447C20.3082 57.2004 20.7063 57.6844 21.2371 57.9966C21.7835 58.3088 22.4548 58.465 23.251 58.465ZM36.6065 60.1979C35.3576 60.1979 34.3038 59.9715 33.4451 59.5188C32.6021 59.0504 31.9542 58.3401 31.5014 57.3877C31.0643 56.4354 30.8457 55.2255 30.8457 53.758C30.8457 52.2748 31.0643 51.0649 31.5014 50.1282C31.9542 49.1759 32.6021 48.4733 33.4451 48.0206C34.3038 47.5522 35.3576 47.3181 36.6065 47.3181C37.8555 47.3181 38.9015 47.5522 39.7445 48.0206C40.6032 48.4733 41.2511 49.1759 41.6882 50.1282C42.1253 51.0649 42.3439 52.2748 42.3439 53.758C42.3439 55.2255 42.1253 56.4354 41.6882 57.3877C41.2511 58.3401 40.6032 59.0504 39.7445 59.5188C38.9015 59.9715 37.8555 60.1979 36.6065 60.1979ZM36.6065 58.465C37.4027 58.465 38.0662 58.3088 38.597 57.9966C39.1279 57.6844 39.526 57.2004 39.7914 56.5447C40.0724 55.8734 40.2129 55.0303 40.2129 54.0156V53.5004C40.2129 52.47 40.0724 51.6269 39.7914 50.9712C39.526 50.3155 39.1279 49.8316 38.597 49.5193C38.0662 49.2071 37.4027 49.051 36.6065 49.051C35.8103 49.051 35.139 49.2071 34.5926 49.5193C34.0618 49.8316 33.6637 50.3155 33.3983 50.9712C33.1329 51.6269 33.0002 52.47 33.0002 53.5004V54.0156C33.0002 55.0303 33.1329 55.8734 33.3983 56.5447C33.6637 57.2004 34.0618 57.6844 34.5926 57.9966C35.139 58.3088 35.8103 58.465 36.6065 58.465ZM49.2127 60.1979C48.3696 60.1979 47.6281 60.112 46.988 59.9403C46.3479 59.7686 45.8171 59.5188 45.3956 59.1909C44.974 58.8631 44.654 58.4728 44.4354 58.02C44.2169 57.5673 44.1076 57.0521 44.1076 56.4744C44.1076 56.3964 44.1076 56.3261 44.1076 56.2637C44.1076 56.1856 44.1154 56.1232 44.131 56.0763H46.1683C46.1527 56.1388 46.1449 56.1934 46.1449 56.2403C46.1449 56.2871 46.1449 56.3339 46.1449 56.3808C46.1605 56.9272 46.301 57.3565 46.5664 57.6688C46.8475 57.981 47.23 58.1996 47.7139 58.3245C48.1979 58.4493 48.7365 58.5118 49.3298 58.5118C49.845 58.5118 50.3211 58.4493 50.7582 58.3245C51.1954 58.1839 51.5388 57.981 51.7886 57.7156C52.054 57.4346 52.1867 57.0833 52.1867 56.6618C52.1867 56.1466 52.015 55.7563 51.6715 55.4909C51.3437 55.2099 50.9066 54.9913 50.3601 54.8352C49.8137 54.6791 49.2439 54.5151 48.6506 54.3434C48.1511 54.2029 47.6515 54.0468 47.1519 53.8751C46.6523 53.7033 46.1996 53.4926 45.7937 53.2428C45.4034 52.993 45.0833 52.6729 44.8335 52.2826C44.5993 51.8767 44.4823 51.3693 44.4823 50.7605C44.4823 50.2141 44.5915 49.7301 44.8101 49.3086C45.0443 48.887 45.3721 48.528 45.7937 48.2313C46.2152 47.9347 46.7226 47.7162 47.3158 47.5756C47.9247 47.4195 48.596 47.3415 49.3298 47.3415C50.1104 47.3415 50.7895 47.4273 51.3671 47.5991C51.9604 47.7708 52.4521 48.0128 52.8424 48.325C53.2327 48.6373 53.5216 48.9963 53.7089 49.4022C53.8962 49.7925 53.9899 50.2141 53.9899 50.6668C53.9899 50.7605 53.9899 50.8542 53.9899 50.9478C53.9899 51.0259 53.9821 51.0883 53.9665 51.1352H51.9526V50.8776C51.9526 50.5653 51.8667 50.2687 51.695 49.9877C51.5388 49.6911 51.2578 49.4569 50.8519 49.2852C50.4616 49.0978 49.9152 49.0041 49.2127 49.0041C48.7599 49.0041 48.3696 49.0432 48.0418 49.1212C47.7139 49.1837 47.4407 49.293 47.2221 49.4491C47.0036 49.5896 46.8397 49.7613 46.7304 49.9643C46.6211 50.1516 46.5664 50.3702 46.5664 50.62C46.5664 51.0259 46.6991 51.3381 46.9646 51.5567C47.23 51.7753 47.5812 51.9548 48.0184 52.0953C48.4711 52.2358 48.9551 52.3919 49.4703 52.5637C50.0167 52.7198 50.5709 52.8837 51.1329 53.0554C51.7106 53.2116 52.2336 53.4145 52.7019 53.6643C53.1859 53.9141 53.5684 54.2575 53.8494 54.6947C54.146 55.1162 54.2943 55.6782 54.2943 56.3808C54.2943 57.0365 54.1695 57.6063 53.9197 58.0903C53.6699 58.5742 53.3108 58.9723 52.8424 59.2846C52.3897 59.5968 51.8511 59.8232 51.2266 59.9637C50.6177 60.1198 49.9464 60.1979 49.2127 60.1979ZM59.7218 60.1979C59.0817 60.1979 58.5821 60.0808 58.2231 59.8466C57.864 59.5968 57.6064 59.2768 57.4503 58.8865C57.2942 58.4806 57.2161 58.0512 57.2161 57.5985V49.332H55.6237V47.5991H57.2629L57.6376 44.1566H59.2769V47.5991H61.5952V49.332H59.2769V57.2941C59.2769 57.6844 59.3471 57.981 59.4876 58.1839C59.6281 58.3713 59.8935 58.465 60.2838 58.465H61.5952V59.8232C61.4391 59.9013 61.2518 59.9637 61.0332 60.0105C60.8146 60.0574 60.5883 60.0964 60.3541 60.1276C60.1355 60.1745 59.9248 60.1979 59.7218 60.1979ZM75.5958 60.1979C74.2376 60.1979 73.0667 59.9793 72.0832 59.5422C71.0996 59.1051 70.3424 58.4181 69.8116 57.4814C69.2964 56.5291 69.0388 55.3114 69.0388 53.8282V43.8522H71.2635V54.0624C71.2635 55.4675 71.6382 56.5213 72.3876 57.2238C73.1526 57.9264 74.222 58.2776 75.5958 58.2776C76.9853 58.2776 78.0703 57.9264 78.8509 57.2238C79.6315 56.5213 80.0218 55.4675 80.0218 54.0624V43.8522H82.2231V53.8282C82.2231 55.3114 81.9577 56.5291 81.4269 57.4814C80.8961 58.4181 80.1311 59.1051 79.1319 59.5422C78.1484 59.9793 76.9697 60.1979 75.5958 60.1979ZM86.2146 59.9169V43.8522H94.1532C95.2617 43.8522 96.1828 44.063 96.9165 44.4845C97.6503 44.8904 98.1967 45.4602 98.5558 46.194C98.9305 46.9278 99.1178 47.7786 99.1178 48.7465C99.1178 49.7301 98.9149 50.6044 98.5089 51.3693C98.103 52.1187 97.5254 52.7042 96.776 53.1257C96.0423 53.5472 95.1602 53.758 94.1298 53.758H88.4393V59.9169H86.2146ZM88.4393 51.8377H93.9893C94.8636 51.8377 95.5583 51.5645 96.0735 51.0181C96.6043 50.4717 96.8697 49.7223 96.8697 48.77C96.8697 48.1299 96.7604 47.5913 96.5418 47.1541C96.3233 46.717 96.0032 46.3813 95.5817 46.1472C95.1602 45.8974 94.6294 45.7725 93.9893 45.7725H88.4393V51.8377Z" fill="#FCFCFC"/>
<path d="M8.24135 70.4483C8.08702 70.7908 7.93028 71.0777 7.77113 71.3092C7.61681 71.5359 7.43354 71.7071 7.22134 71.8228C7.00914 71.9337 6.73907 71.9892 6.41112 71.9892C6.27608 71.9892 6.14828 71.9796 6.02771 71.9603C5.91197 71.941 5.80586 71.9145 5.70941 71.8807V71.2369C5.80586 71.2803 5.90955 71.3164 6.02048 71.3454C6.1314 71.3695 6.24715 71.3815 6.36771 71.3815C6.54616 71.3815 6.69807 71.3574 6.82346 71.3092C6.95368 71.2562 7.06701 71.1718 7.16347 71.056C7.26475 70.9403 7.35879 70.7859 7.4456 70.593L5.45622 66.7517H6.17239L7.61198 69.5947C7.63127 69.6285 7.65057 69.6695 7.66986 69.7177C7.68915 69.7611 7.70844 69.8069 7.72773 69.8551C7.75184 69.9034 7.77113 69.9492 7.7856 69.9926H7.81454C7.82901 69.9588 7.84348 69.9203 7.85794 69.8768C7.87723 69.8286 7.89411 69.7828 7.90858 69.7394C7.92787 69.6912 7.94475 69.6502 7.95922 69.6164L9.20349 66.7517H9.89073L8.24135 70.4483ZM11.9198 71.9892C11.5774 71.9892 11.2712 71.9193 11.0011 71.7794C10.7359 71.6396 10.5261 71.4225 10.3717 71.1284C10.2222 70.8342 10.1475 70.458 10.1475 69.9998C10.1475 69.5224 10.2271 69.1341 10.3862 68.8351C10.5454 68.5361 10.76 68.3167 11.03 68.1768C11.3049 68.037 11.616 67.967 11.9633 67.967C12.161 67.967 12.3515 67.9887 12.5347 68.0321C12.718 68.0707 12.8675 68.119 12.9833 68.1768L12.7879 68.7049C12.6722 68.6615 12.5372 68.6205 12.3828 68.5819C12.2285 68.5434 12.0838 68.5241 11.9488 68.5241C11.6884 68.5241 11.4737 68.5795 11.3049 68.6905C11.1361 68.8014 11.0108 68.9653 10.9288 69.1824C10.8468 69.3994 10.8058 69.6695 10.8058 69.9926C10.8058 70.3012 10.8468 70.5641 10.9288 70.7811C11.0108 70.9981 11.1337 71.1621 11.2977 71.273C11.4617 71.384 11.6667 71.4394 11.9126 71.4394C12.1248 71.4394 12.3105 71.4177 12.4696 71.3743C12.6336 71.3309 12.7831 71.2779 12.9182 71.2152V71.7794C12.7879 71.8469 12.6433 71.8976 12.4841 71.9313C12.3298 71.9699 12.1417 71.9892 11.9198 71.9892ZM16.1335 68.0394H16.828L15.1714 69.9058L16.9654 71.9169H16.2275L14.4769 69.9492V71.9169H13.8403V68.0394H14.4769V69.9203L16.1335 68.0394ZM20.8991 69.9709C20.8991 70.294 20.8557 70.581 20.7689 70.8318C20.6869 71.0777 20.5663 71.2875 20.4072 71.4611C20.2528 71.6347 20.0623 71.7674 19.8357 71.859C19.6138 71.9458 19.3655 71.9892 19.0906 71.9892C18.8349 71.9892 18.5986 71.9458 18.3816 71.859C18.1646 71.7674 17.9765 71.6347 17.8173 71.4611C17.6582 71.2875 17.5328 71.0777 17.4412 70.8318C17.3544 70.581 17.311 70.294 17.311 69.9709C17.311 69.5417 17.3833 69.18 17.528 68.8858C17.6727 68.5868 17.88 68.3601 18.1501 68.2058C18.4202 68.0466 18.7409 67.967 19.1123 67.967C19.4643 67.967 19.773 68.0466 20.0382 68.2058C20.3083 68.3601 20.5181 68.5868 20.6676 68.8858C20.8219 69.18 20.8991 69.5417 20.8991 69.9709ZM17.9693 69.9709C17.9693 70.2747 18.0078 70.54 18.085 70.7666C18.167 70.9885 18.2924 71.1597 18.4612 71.2803C18.63 71.4008 18.8446 71.4611 19.105 71.4611C19.3655 71.4611 19.5801 71.4008 19.7489 71.2803C19.9177 71.1597 20.0406 70.9885 20.1178 70.7666C20.1998 70.54 20.2408 70.2747 20.2408 69.9709C20.2408 69.6622 20.1998 69.3994 20.1178 69.1824C20.0358 68.9653 19.9104 68.799 19.7416 68.6832C19.5777 68.5626 19.363 68.5024 19.0978 68.5024C18.7023 68.5024 18.4154 68.6326 18.2369 68.893C18.0585 69.1534 17.9693 69.5127 17.9693 69.9709ZM23.7527 67.967C24.2302 67.967 24.6136 68.1334 24.9029 68.4662C25.1971 68.799 25.3442 69.3005 25.3442 69.9709C25.3442 70.4098 25.2767 70.7811 25.1417 71.0849C25.0115 71.384 24.8258 71.6106 24.5846 71.765C24.3483 71.9145 24.0686 71.9892 23.7455 71.9892C23.5478 71.9892 23.3717 71.9627 23.2174 71.9096C23.0631 71.8566 22.9304 71.7891 22.8195 71.7071C22.7134 71.6203 22.6218 71.5262 22.5446 71.4249H22.5012C22.5109 71.5069 22.5205 71.6106 22.5302 71.736C22.5398 71.8614 22.5446 71.9699 22.5446 72.0616V73.6531H21.908V68.0394H22.4289L22.5157 68.5675H22.5446C22.6218 68.4565 22.7134 68.3553 22.8195 68.2636C22.9304 68.172 23.0607 68.0997 23.2102 68.0466C23.3645 67.9936 23.5453 67.967 23.7527 67.967ZM23.637 68.5024C23.3765 68.5024 23.1668 68.553 23.0076 68.6543C22.8485 68.7507 22.7327 68.8978 22.6604 69.0956C22.588 69.2933 22.5494 69.5441 22.5446 69.8479V69.9709C22.5446 70.2892 22.5784 70.5593 22.6459 70.7811C22.7134 71.003 22.8268 71.1718 22.9859 71.2875C23.1499 71.4032 23.3717 71.4611 23.6514 71.4611C23.8878 71.4611 24.0807 71.396 24.2302 71.2658C24.3845 71.1356 24.4978 70.9596 24.5702 70.7377C24.6473 70.511 24.6859 70.253 24.6859 69.9637C24.6859 69.52 24.5991 69.1655 24.4255 68.9002C24.2567 68.635 23.9939 68.5024 23.637 68.5024ZM26.9591 70.4049C26.9591 70.4483 26.9567 70.511 26.9519 70.593C26.9519 70.6702 26.9495 70.7546 26.9447 70.8462C26.9398 70.933 26.935 71.0174 26.9302 71.0994C26.9254 71.1766 26.9205 71.2393 26.9157 71.2875L28.9919 68.0394H29.7732V71.9169H29.18V69.6309C29.18 69.5537 29.18 69.4524 29.18 69.3271C29.1848 69.2017 29.1896 69.0787 29.1945 68.9581C29.1993 68.8327 29.2041 68.7387 29.2089 68.676L27.1472 71.9169H26.3587V68.0394H26.9591V70.4049ZM33.6838 68.5747H32.4178V71.9169H31.7885V68.5747H30.537V68.0394H33.6838V68.5747ZM35.8744 67.967C36.2072 67.967 36.4918 68.0394 36.7281 68.1841C36.9692 68.3287 37.1525 68.5337 37.2779 68.799C37.4081 69.0594 37.4732 69.3656 37.4732 69.7177V70.1011H34.8183C34.8279 70.54 34.9388 70.8752 35.151 71.1066C35.3681 71.3333 35.6695 71.4467 36.0553 71.4467C36.3013 71.4467 36.5183 71.4249 36.7064 71.3815C36.8993 71.3333 37.097 71.2658 37.2996 71.179V71.736C37.1018 71.8228 36.9065 71.8855 36.7136 71.9241C36.5207 71.9675 36.2916 71.9892 36.0264 71.9892C35.6598 71.9892 35.3343 71.9145 35.0498 71.765C34.77 71.6154 34.5506 71.3936 34.3915 71.0994C34.2371 70.8004 34.16 70.4363 34.16 70.0071C34.16 69.5827 34.2299 69.2185 34.3697 68.9147C34.5144 68.6109 34.7146 68.377 34.9702 68.213C35.2306 68.049 35.532 67.967 35.8744 67.967ZM35.8672 68.4879C35.5634 68.4879 35.3222 68.5868 35.1438 68.7845C34.9702 68.9774 34.8665 69.2475 34.8327 69.5947H36.8076C36.8076 69.3729 36.7739 69.18 36.7064 69.016C36.6389 68.852 36.5352 68.7242 36.3953 68.6326C36.2603 68.5361 36.0842 68.4879 35.8672 68.4879ZM41.4118 71.9169H40.768V68.5675H39.625C39.5768 69.18 39.5165 69.7032 39.4441 70.1373C39.3718 70.5665 39.2802 70.9162 39.1692 71.1862C39.0583 71.4563 38.9257 71.654 38.7714 71.7794C38.617 71.9048 38.4362 71.9675 38.2288 71.9675C38.1661 71.9675 38.1034 71.9627 38.0407 71.953C37.9829 71.9482 37.9346 71.9362 37.896 71.9169V71.4394C37.925 71.4491 37.9563 71.4563 37.9901 71.4611C38.0238 71.4659 38.0576 71.4684 38.0914 71.4684C38.1975 71.4684 38.2939 71.4249 38.3807 71.3381C38.4675 71.2513 38.5447 71.1187 38.6122 70.9403C38.6846 70.7618 38.7497 70.5376 38.8075 70.2675C38.8654 69.9926 38.9161 69.6695 38.9595 69.2981C39.0029 68.9268 39.0414 68.5072 39.0752 68.0394H41.4118V71.9169ZM44.4294 69.6309C44.767 69.6309 45.0467 69.6719 45.2685 69.7539C45.4904 69.8359 45.6567 69.9588 45.7677 70.1228C45.8834 70.282 45.9413 70.4845 45.9413 70.7305C45.9413 70.9716 45.8858 71.1814 45.7749 71.3598C45.6688 71.5383 45.5024 71.6757 45.2757 71.7722C45.0491 71.8686 44.7573 71.9169 44.4004 71.9169H42.6425V68.0394H43.2791V69.6309H44.4294ZM45.3047 70.7666C45.3047 70.5303 45.2203 70.3712 45.0515 70.2892C44.8875 70.2024 44.656 70.159 44.357 70.159H43.2791V71.4032H44.3715C44.6416 71.4032 44.8634 71.355 45.037 71.2586C45.2155 71.1621 45.3047 70.9981 45.3047 70.7666ZM50.584 67.967C51.0614 67.967 51.4448 68.1334 51.7342 68.4662C52.0284 68.799 52.1755 69.3005 52.1755 69.9709C52.1755 70.4098 52.1079 70.7811 51.9729 71.0849C51.8427 71.384 51.657 71.6106 51.4159 71.765C51.1796 71.9145 50.8998 71.9892 50.5767 71.9892C50.379 71.9892 50.203 71.9627 50.0486 71.9096C49.8943 71.8566 49.7617 71.7891 49.6508 71.7071C49.5447 71.6203 49.453 71.5262 49.3759 71.4249H49.3325C49.3421 71.5069 49.3517 71.6106 49.3614 71.736C49.371 71.8614 49.3759 71.9699 49.3759 72.0616V73.6531H48.7393V68.0394H49.2601L49.3469 68.5675H49.3759C49.453 68.4565 49.5447 68.3553 49.6508 68.2636C49.7617 68.172 49.8919 68.0997 50.0414 68.0466C50.1957 67.9936 50.3766 67.967 50.584 67.967ZM50.4682 68.5024C50.2078 68.5024 49.998 68.553 49.8388 68.6543C49.6797 68.7507 49.5639 68.8978 49.4916 69.0956C49.4193 69.2933 49.3807 69.5441 49.3759 69.8479V69.9709C49.3759 70.2892 49.4096 70.5593 49.4771 70.7811C49.5447 71.003 49.658 71.1718 49.8171 71.2875C49.9811 71.4032 50.203 71.4611 50.4827 71.4611C50.719 71.4611 50.9119 71.396 51.0614 71.2658C51.2157 71.1356 51.3291 70.9596 51.4014 70.7377C51.4786 70.511 51.5172 70.253 51.5172 69.9637C51.5172 69.52 51.4303 69.1655 51.2567 68.9002C51.0879 68.635 50.8251 68.5024 50.4682 68.5024ZM54.6585 67.9743C55.1311 67.9743 55.4807 68.078 55.7074 68.2853C55.9341 68.4927 56.0474 68.8231 56.0474 69.2764V71.9169H55.5844L55.4614 71.3671H55.4325C55.3216 71.5069 55.2058 71.6251 55.0853 71.7215C54.9695 71.8132 54.8345 71.8807 54.6802 71.9241C54.5307 71.9675 54.3474 71.9892 54.1304 71.9892C53.8989 71.9892 53.6891 71.9482 53.501 71.8662C53.3177 71.7842 53.1731 71.6589 53.067 71.4901C52.9609 71.3164 52.9078 71.0994 52.9078 70.839C52.9078 70.4532 53.0597 70.1566 53.3636 69.9492C53.6674 69.737 54.1352 69.6212 54.767 69.602L55.4253 69.5802V69.3488C55.4253 69.0256 55.3553 68.8014 55.2155 68.676C55.0756 68.5506 54.8779 68.4879 54.6223 68.4879C54.4197 68.4879 54.2268 68.5192 54.0436 68.5819C53.8603 68.6398 53.6891 68.7073 53.5299 68.7845L53.3346 68.307C53.5034 68.2154 53.7036 68.1382 53.935 68.0756C54.1665 68.008 54.4077 67.9743 54.6585 67.9743ZM54.8465 70.0432C54.3643 70.0625 54.0291 70.1397 53.841 70.2747C53.6577 70.4098 53.5661 70.6003 53.5661 70.8462C53.5661 71.0632 53.6312 71.2224 53.7614 71.3237C53.8965 71.4249 54.0677 71.4756 54.2751 71.4756C54.603 71.4756 54.8755 71.3864 55.0925 71.2079C55.3095 71.0247 55.418 70.7449 55.418 70.3688V70.0215L54.8465 70.0432ZM58.265 67.967C58.5592 67.967 58.8148 68.008 59.0318 68.09C59.2488 68.1672 59.4176 68.2829 59.5382 68.4373C59.6588 68.5868 59.7191 68.77 59.7191 68.9871C59.7191 69.2234 59.654 69.4115 59.5237 69.5513C59.3935 69.6863 59.2151 69.7852 58.9884 69.8479V69.8768C59.1427 69.9203 59.285 69.9805 59.4152 70.0577C59.5454 70.1349 59.6491 70.2361 59.7263 70.3615C59.8083 70.4869 59.8493 70.6485 59.8493 70.8462C59.8493 71.0584 59.789 71.2513 59.6684 71.4249C59.5527 71.5986 59.3718 71.736 59.1259 71.8373C58.8847 71.9386 58.5737 71.9892 58.1927 71.9892C58.0094 71.9892 57.8334 71.9796 57.6646 71.9603C57.5006 71.941 57.3511 71.912 57.2161 71.8735C57.0858 71.8349 56.9701 71.7891 56.8688 71.736V71.1645C57.0328 71.2417 57.2257 71.3116 57.4476 71.3743C57.6742 71.437 57.9202 71.4684 58.1854 71.4684C58.3783 71.4684 58.552 71.4467 58.7063 71.4032C58.8654 71.3598 58.9908 71.2923 59.0825 71.2007C59.1741 71.1042 59.2199 70.974 59.2199 70.81C59.2199 70.6605 59.1789 70.54 59.0969 70.4483C59.0149 70.3519 58.892 70.2795 58.728 70.2313C58.5688 70.1831 58.3639 70.159 58.1131 70.159H57.5922V69.6381H58.0118C58.3446 69.6381 58.6098 69.5947 58.8076 69.5079C59.0101 69.4163 59.1114 69.2619 59.1114 69.0449C59.1114 68.8617 59.0342 68.7242 58.8799 68.6326C58.7304 68.5409 58.5134 68.4951 58.2288 68.4951C58.0166 68.4951 57.8285 68.5168 57.6646 68.5602C57.5054 68.5988 57.3294 68.6591 57.1365 68.7411L56.9122 68.2347C57.1196 68.1431 57.3366 68.0756 57.5633 68.0321C57.79 67.9887 58.0239 67.967 58.265 67.967ZM63.9093 69.016C63.9093 69.2571 63.837 69.4452 63.6923 69.5802C63.5476 69.7153 63.3619 69.8069 63.1353 69.8551V69.8841C63.3764 69.9178 63.5862 70.0047 63.7646 70.1445C63.9431 70.2795 64.0323 70.4917 64.0323 70.7811C64.0323 70.9451 64.0009 71.097 63.9383 71.2369C63.8804 71.3767 63.7887 71.4973 63.6634 71.5986C63.538 71.6998 63.3764 71.7794 63.1787 71.8373C62.9809 71.8903 62.7422 71.9169 62.4625 71.9169H60.7914V68.0394H62.4553C62.7302 68.0394 62.9761 68.0707 63.1931 68.1334C63.415 68.1913 63.5886 68.2926 63.714 68.4373C63.8442 68.5771 63.9093 68.77 63.9093 69.016ZM63.374 70.7811C63.374 70.5593 63.2896 70.4001 63.1208 70.3037C62.952 70.2072 62.7036 70.159 62.3757 70.159H61.428V71.4032H62.3902C62.7085 71.4032 62.952 71.3574 63.1208 71.2658C63.2896 71.1693 63.374 71.0078 63.374 70.7811ZM63.2655 69.0956C63.2655 68.9123 63.198 68.7797 63.0629 68.6977C62.9327 68.6109 62.7181 68.5675 62.4191 68.5675H61.428V69.6309H62.3033C62.6168 69.6309 62.8555 69.5875 63.0195 69.5007C63.1835 69.4139 63.2655 69.2788 63.2655 69.0956ZM65.5599 70.4049C65.5599 70.4483 65.5575 70.511 65.5527 70.593C65.5527 70.6702 65.5503 70.7546 65.5455 70.8462C65.5406 70.933 65.5358 71.0174 65.531 71.0994C65.5262 71.1766 65.5214 71.2393 65.5165 71.2875L67.5927 68.0394H68.374V71.9169H67.7808V69.6309C67.7808 69.5537 67.7808 69.4524 67.7808 69.3271C67.7856 69.2017 67.7905 69.0787 67.7953 68.9581C67.8001 68.8327 67.8049 68.7387 67.8098 68.676L65.748 71.9169H64.9595V68.0394H65.5599V70.4049ZM72.2846 68.5747H71.0186V71.9169H70.3893V68.5747H69.1378V68.0394H72.2846V68.5747ZM73.6489 70.4049C73.6489 70.4483 73.6465 70.511 73.6416 70.593C73.6416 70.6702 73.6392 70.7546 73.6344 70.8462C73.6296 70.933 73.6248 71.0174 73.6199 71.0994C73.6151 71.1766 73.6103 71.2393 73.6055 71.2875L75.6817 68.0394H76.4629V71.9169H75.8697V69.6309C75.8697 69.5537 75.8697 69.4524 75.8697 69.3271C75.8746 69.2017 75.8794 69.0787 75.8842 68.9581C75.889 68.8327 75.8939 68.7387 75.8987 68.676L73.837 71.9169H73.0484V68.0394H73.6489V70.4049ZM77.9357 71.9169H77.1978L78.3046 70.2892C78.1551 70.2506 78.0104 70.1903 77.8706 70.1083C77.7307 70.0215 77.6174 69.9034 77.5305 69.7539C77.4437 69.5995 77.4003 69.409 77.4003 69.1824C77.4003 68.811 77.5257 68.5289 77.7765 68.336C78.0273 68.1382 78.3601 68.0394 78.7748 68.0394H80.511V71.9169H79.8744V70.376H78.934L77.9357 71.9169ZM78.0152 69.1896C78.0152 69.4115 78.0972 69.5778 78.2612 69.6888C78.43 69.7949 78.6639 69.8479 78.9629 69.8479H79.8744V68.5675H78.8399C78.5457 68.5675 78.3335 68.6253 78.2033 68.7411C78.0779 68.8568 78.0152 69.0063 78.0152 69.1896ZM86.6572 69.016C86.6572 69.2571 86.5849 69.4452 86.4402 69.5802C86.2955 69.7153 86.1099 69.8069 85.8832 69.8551V69.8841C86.1243 69.9178 86.3341 70.0047 86.5126 70.1445C86.691 70.2795 86.7802 70.4917 86.7802 70.7811C86.7802 70.9451 86.7489 71.097 86.6862 71.2369C86.6283 71.3767 86.5367 71.4973 86.4113 71.5986C86.2859 71.6998 86.1243 71.7794 85.9266 71.8373C85.7289 71.8903 85.4901 71.9169 85.2104 71.9169H83.5393V68.0394H85.2032C85.4781 68.0394 85.724 68.0707 85.9411 68.1334C86.1629 68.1913 86.3365 68.2926 86.4619 68.4373C86.5921 68.5771 86.6572 68.77 86.6572 69.016ZM86.1219 70.7811C86.1219 70.5593 86.0375 70.4001 85.8687 70.3037C85.6999 70.2072 85.4516 70.159 85.1236 70.159H84.1759V71.4032H85.1381C85.4564 71.4032 85.6999 71.3574 85.8687 71.2658C86.0375 71.1693 86.1219 71.0078 86.1219 70.7811ZM86.0134 69.0956C86.0134 68.9123 85.9459 68.7797 85.8108 68.6977C85.6806 68.6109 85.466 68.5675 85.167 68.5675H84.1759V69.6309H85.0513C85.3647 69.6309 85.6035 69.5875 85.7674 69.5007C85.9314 69.4139 86.0134 69.2788 86.0134 69.0956ZM89.4203 67.7346H90.1232V71.9169H89.4203V67.7346ZM94.4997 67.7346V68.0031H92.9844V71.9169H92.2815V68.0031H90.7661V67.7346H94.4997Z" fill="#FCFCFC"/>
<path d="M96.2549 22.9653C96.5921 22.6104 97.1835 22.7223 97.3676 23.176L102.517 35.8611C102.718 36.3554 102.292 36.8758 101.768 36.7766L87.188 34.0164C86.6638 33.9172 86.4574 33.2771 86.8248 32.8903L96.2549 22.9653Z" fill="#22ABF3"/>
<path d="M110.017 27.3315C110.203 26.8397 110.855 26.74 111.178 27.154L124.451 44.1176C124.768 44.5234 124.531 45.121 124.022 45.1988L103.153 48.3898C102.644 48.4677 102.239 47.9683 102.421 47.4861L110.017 27.3315Z" fill="#7ED956"/>
<path d="M103.247 6.55866L121.341 15.2462L104.225 26.6061L103.247 6.55866Z" fill="#FD7400"/>
</svg>
