<svg width="25" height="25" viewBox="0 0 25 25" fill="none" xmlns="http://www.w3.org/2000/svg">
<g id="Frame">
<g id="Group">
<path id="Vector" d="M19.7917 1.04163H5.20833C3.82751 1.04328 2.50371 1.59254 1.52731 2.56894C0.550919 3.54533 0.00165402 4.86913 0 6.24996L0 18.75C0.00165402 20.1308 0.550919 21.4546 1.52731 22.431C2.50371 23.4074 3.82751 23.9566 5.20833 23.9583H19.7917C21.1725 23.9566 22.4963 23.4074 23.4727 22.431C24.4491 21.4546 24.9983 20.1308 25 18.75V6.24996C24.9983 4.86913 24.4491 3.54533 23.4727 2.56894C22.4963 1.59254 21.1725 1.04328 19.7917 1.04163ZM5.20833 3.12496H19.7917C20.4154 3.12619 21.0245 3.31404 21.5406 3.66434C22.0567 4.01464 22.4561 4.51136 22.6875 5.09058L14.7104 13.0687C14.1234 13.6534 13.3286 13.9817 12.5 13.9817C11.6714 13.9817 10.8766 13.6534 10.2896 13.0687L2.3125 5.09058C2.5439 4.51136 2.94335 4.01464 3.45942 3.66434C3.9755 3.31404 4.5846 3.12619 5.20833 3.12496ZM19.7917 21.875H5.20833C4.37953 21.875 3.58468 21.5457 2.99862 20.9597C2.41257 20.3736 2.08333 19.5788 2.08333 18.75V7.81246L8.81667 14.5416C9.7944 15.5169 11.119 16.0646 12.5 16.0646C13.881 16.0646 15.2056 15.5169 16.1833 14.5416L22.9167 7.81246V18.75C22.9167 19.5788 22.5874 20.3736 22.0014 20.9597C21.4153 21.5457 20.6205 21.875 19.7917 21.875Z" fill="#FCFCFC"/>
</g>
</g>
</svg>
