<svg width="25" height="25" viewBox="0 0 25 25" fill="none" xmlns="http://www.w3.org/2000/svg">
<g id="Outline" clip-path="url(#clip0_35_327)">
<path id="Vector" d="M24.0823 0.918739C23.7088 0.540747 23.2442 0.265463 22.7333 0.119485C22.2223 -0.0264926 21.6824 -0.0382305 21.1656 0.0854057L4.49895 3.59582C3.53913 3.72745 2.63513 4.12444 1.88874 4.74209C1.14236 5.35973 0.583233 6.17349 0.274339 7.09172C-0.0345547 8.00996 -0.0809501 8.9962 0.140378 9.93938C0.361706 10.8826 0.841966 11.7452 1.52707 12.4302L3.31666 14.2187C3.41352 14.3156 3.49033 14.4305 3.5427 14.5571C3.59507 14.6836 3.62197 14.8193 3.62187 14.9562V18.2562C3.62416 18.7202 3.73098 19.1777 3.93437 19.5948L3.92603 19.6021L3.95312 19.6292C4.25834 20.2428 4.75685 20.7391 5.37187 21.0417L5.39895 21.0687L5.40624 21.0604C5.82328 21.2638 6.28079 21.3706 6.74478 21.3729H10.0448C10.3209 21.3727 10.5858 21.4821 10.7812 21.6771L12.5698 23.4656C13.0495 23.9506 13.6205 24.3359 14.2498 24.5993C14.8791 24.8626 15.5543 24.9988 16.2365 25C16.8049 24.9993 17.3696 24.9064 17.9083 24.725C18.8182 24.4262 19.6264 23.8792 20.2419 23.1455C20.8574 22.4119 21.2556 21.5208 21.3917 20.5729L24.9073 3.86978C25.0373 3.34857 25.0297 2.80251 24.885 2.28516C24.7404 1.76781 24.4638 1.29694 24.0823 0.918739ZM4.79166 12.7479L3.00103 10.9594C2.58407 10.5524 2.29184 10.035 2.15862 9.46786C2.02541 8.90068 2.05674 8.30727 2.24895 7.75728C2.4353 7.19303 2.77979 6.69418 3.24145 6.32005C3.7031 5.94593 4.2625 5.71227 4.85312 5.64686L21.3542 2.17291L5.70312 17.826V14.9562C5.70469 14.5462 5.62495 14.1399 5.4685 13.7608C5.31205 13.3818 5.082 13.0375 4.79166 12.7479ZM19.3448 20.2167C19.2648 20.792 19.026 21.3337 18.6553 21.7809C18.2846 22.2281 17.7965 22.5631 17.246 22.7483C16.6954 22.9335 16.1041 22.9616 15.5385 22.8294C14.9728 22.6972 14.4552 22.41 14.0437 22L12.2521 20.2083C11.9629 19.9175 11.6189 19.687 11.24 19.53C10.8611 19.373 10.4549 19.2927 10.0448 19.2937H7.17499L22.8281 3.64582L19.3448 20.2167Z" fill="#FCFCFC"/>
</g>
<defs>
<clipPath id="clip0_35_327">
<rect width="25" height="25" fill="white"/>
</clipPath>
</defs>
</svg>
