<svg width="86" height="86" viewBox="0 0 86 86" fill="none" xmlns="http://www.w3.org/2000/svg">
<path d="M86 43C86 66.7482 66.7482 86 43 86C19.2518 86 0 66.7482 0 43C0 19.2518 19.2518 0 43 0C66.7482 0 86 19.2518 86 43ZM6.88 43C6.88 62.9485 23.0515 79.12 43 79.12C62.9485 79.12 79.12 62.9485 79.12 43C79.12 23.0515 62.9485 6.88 43 6.88C23.0515 6.88 6.88 23.0515 6.88 43Z" fill="#E6E6E6"/>
<path d="M43 3.44001C43 1.54014 44.5426 -0.0142994 46.4364 0.137525C52.2587 0.604314 57.9376 2.25365 63.121 4.99808C69.3199 8.28026 74.6219 13.0291 78.5645 18.8304C82.5071 24.6318 84.9706 31.3095 85.7403 38.2814C86.51 45.2533 85.5625 52.3077 82.9804 58.8294C80.3983 65.351 76.2599 71.1421 70.9263 75.6975C65.5926 80.2528 59.2255 83.4343 52.3802 84.9644C45.5348 86.4945 38.4191 86.3268 31.6535 84.476C25.9963 82.9283 20.7275 80.2432 16.1636 76.5978C14.6792 75.4121 14.6188 73.2229 15.9193 71.838C17.2199 70.4531 19.3878 70.3994 20.8901 71.5624C24.6226 74.4517 28.8946 76.5884 33.4689 77.8398C39.1521 79.3945 45.1293 79.5354 50.8793 78.2501C56.6294 76.9648 61.9778 74.2924 66.4581 70.4659C70.9383 66.6393 74.4145 61.7749 76.5835 56.2967C78.7525 50.8184 79.5484 44.8928 78.9019 39.0364C78.2553 33.18 76.1859 27.5707 72.8741 22.6976C69.5624 17.8244 65.1087 13.8354 59.9016 11.0784C55.7105 8.8593 51.1336 7.49255 46.4349 7.04369C44.5436 6.86302 43 5.33986 43 3.44001Z" fill="#FF7F01"/>
<path d="M29.1261 46.4938V48.7455H22.3712V46.4938H24.5916V42.5066C24.4977 42.6317 24.3518 42.7568 24.1537 42.8818C23.9557 43.0069 23.7316 43.1268 23.4814 43.2415C23.2416 43.3562 22.9967 43.45 22.7465 43.5229C22.4963 43.5855 22.267 43.6168 22.0585 43.6168V41.3026C22.2357 41.3026 22.4546 41.2505 22.7152 41.1462C22.9758 41.0315 23.2364 40.8908 23.497 40.724C23.768 40.5572 24.0026 40.3905 24.2007 40.2237C24.4091 40.0569 24.5394 39.9214 24.5916 39.8171H27.1403V46.4938H29.1261ZM30.8239 48.7455C30.8239 48.2555 30.8604 47.8177 30.9333 47.432C31.0167 47.0463 31.147 46.6971 31.3242 46.3844C31.5119 46.0612 31.7568 45.7642 32.0591 45.4931C32.3719 45.2117 32.7628 44.9458 33.2319 44.6957C33.7218 44.4351 34.1284 44.2162 34.4515 44.0389C34.7851 43.8513 35.0509 43.6949 35.249 43.5698C35.447 43.4448 35.5825 43.3249 35.6555 43.2102C35.7389 43.0851 35.7806 42.9496 35.7806 42.8037C35.7806 42.6056 35.7337 42.4336 35.6399 42.2877C35.5461 42.1417 35.4105 42.0323 35.2333 41.9593C35.0561 41.8759 34.8372 41.8342 34.5766 41.8342C34.3681 41.8342 34.1701 41.8603 33.9824 41.9124C33.7948 41.9645 33.6124 42.0427 33.4351 42.1469C33.2684 42.2512 33.1068 42.3763 32.9504 42.5222C32.7941 42.6577 32.6377 42.8141 32.4813 42.9913L30.9021 41.1462C31.0793 40.969 31.3034 40.7918 31.5744 40.6146C31.8559 40.4374 32.1738 40.281 32.5282 40.1455C32.8827 39.9995 33.2684 39.8849 33.6853 39.8015C34.1127 39.7077 34.5558 39.6608 35.0144 39.6608C35.765 39.6608 36.3956 39.7754 36.9064 40.0048C37.4276 40.2237 37.8238 40.5364 38.0948 40.9429C38.3658 41.3495 38.5013 41.829 38.5013 42.3815C38.5013 42.7359 38.444 43.0486 38.3293 43.3197C38.2251 43.5803 38.0844 43.8148 37.9071 44.0233C37.7299 44.2318 37.5267 44.4194 37.2973 44.5862C37.0784 44.753 36.8595 44.9042 36.6406 45.0397C36.3904 45.1648 36.1559 45.2898 35.937 45.4149C35.7181 45.5296 35.5148 45.6443 35.3271 45.7589C35.1395 45.8632 34.9623 45.9778 34.7955 46.1029C34.6391 46.2176 34.488 46.3479 34.3421 46.4938H38.6733V48.7455H30.8239ZM41.2545 43.1789V40.6302H43.2873V43.1789H41.2545ZM41.2545 48.7455V46.1968H43.2873V48.7455H41.2545ZM54.0828 44.164C54.0828 45.0814 53.9056 45.8997 53.5512 46.6189C53.1968 47.3278 52.712 47.8855 52.097 48.292C51.482 48.6986 50.7836 48.9018 50.0017 48.9018C49.2304 48.9018 48.5319 48.6986 47.9065 48.292C47.2914 47.8855 46.8067 47.3278 46.4523 46.6189C46.0979 45.8997 45.9207 45.0814 45.9207 44.164C45.9207 43.2467 46.0979 42.4336 46.4523 41.7248C46.8067 41.0055 47.2914 40.4426 47.9065 40.036C48.5319 39.6191 49.2304 39.4106 50.0017 39.4106C50.7836 39.4106 51.482 39.6191 52.097 40.036C52.712 40.4426 53.1968 41.0055 53.5512 41.7248C53.9056 42.4336 54.0828 43.2467 54.0828 44.164ZM51.5654 44.164C51.5654 43.6741 51.4976 43.2467 51.3621 42.8818C51.2266 42.517 51.039 42.2303 50.7992 42.0218C50.5699 41.8134 50.304 41.7091 50.0017 41.7091C49.689 41.7091 49.4128 41.8134 49.173 42.0218C48.9333 42.2303 48.7456 42.517 48.6101 42.8818C48.485 43.2467 48.4225 43.6741 48.4225 44.164C48.4225 44.654 48.485 45.0814 48.6101 45.4462C48.7456 45.8111 48.9333 46.0977 49.173 46.3062C49.4128 46.5043 49.689 46.6033 50.0017 46.6033C50.304 46.6033 50.5699 46.5043 50.7992 46.3062C51.039 46.0977 51.2266 45.8111 51.3621 45.4462C51.4976 45.0814 51.5654 44.654 51.5654 44.164ZM60.7167 41.8968H56.0414V39.6138H64.657L59.1843 50.7157H56.3541L60.7167 41.8968Z" fill="#2B2B2B"/>
</svg>
