<svg width="25" height="25" viewBox="0 0 25 25" fill="none" xmlns="http://www.w3.org/2000/svg">
<g id="Frame" clip-path="url(#clip0_35_324)">
<g id="Group">
<path id="Vector" fill-rule="evenodd" clip-rule="evenodd" d="M21.3156 3.63337C20.1678 2.47818 18.8023 1.56221 17.298 0.938535C15.7937 0.314858 14.1806 -0.00413318 12.5521 4.0431e-05C5.72397 4.0431e-05 0.166679 5.55629 0.163554 12.3875C0.160819 14.5616 0.731386 16.698 1.81772 18.5813L0.0593872 25L6.62605 23.2771C8.44226 24.2667 10.4775 24.7853 12.5458 24.7855H12.5511C19.3781 24.7855 24.9365 19.2282 24.9396 12.3969C24.945 10.7691 24.6275 9.15641 24.0054 7.65215C23.3834 6.14788 22.4691 4.78194 21.3156 3.63337ZM12.5521 22.6927H12.5479C10.7039 22.6934 8.89364 22.1976 7.3073 21.2573L6.93126 21.0344L3.03439 22.0563L4.07501 18.2563L3.83022 17.8667C2.7988 16.2255 2.2531 14.3259 2.25626 12.3875C2.25835 6.71046 6.87814 2.09171 12.5573 2.09171C15.3073 2.09171 17.8927 3.16462 19.8365 5.11046C20.7951 6.0653 21.5549 7.20071 22.072 8.45104C22.5891 9.70137 22.8532 11.0418 22.849 12.3948C22.8458 18.074 18.2271 22.6927 12.5521 22.6927ZM18.2 14.9813C17.8906 14.8261 16.3688 14.0771 16.0844 13.974C15.8011 13.8709 15.5948 13.8188 15.3875 14.1282C15.1802 14.4375 14.5886 15.1355 14.4073 15.3427C14.2271 15.549 14.0458 15.575 13.7365 15.4198C13.4271 15.2646 12.4292 14.9386 11.2469 13.8834C10.3271 13.0625 9.70522 12.049 9.52501 11.7386C9.3448 11.4282 9.50626 11.2615 9.66043 11.1073C9.80001 10.9688 9.9698 10.7459 10.125 10.5646C10.2813 10.3855 10.3323 10.2563 10.4365 10.049C10.5396 9.84275 10.4886 9.6615 10.4104 9.50629C10.3323 9.35212 9.71355 7.82817 9.45626 7.20837C9.20522 6.60421 8.95001 6.6865 8.75939 6.67712C8.57918 6.66775 8.37293 6.66671 8.16564 6.66671C7.95939 6.66671 7.62397 6.74379 7.34064 7.05421C7.0573 7.36462 6.2573 8.11358 6.2573 9.6365C6.2573 11.1605 7.36668 12.6323 7.52084 12.8386C7.67501 13.0448 9.70314 16.1719 12.8083 17.5125C13.5469 17.8313 14.124 18.0219 14.5729 18.1646C15.3146 18.4 15.9896 18.3667 16.5229 18.2875C17.1177 18.199 18.3542 17.5386 18.6125 16.8157C18.8708 16.0927 18.8708 15.4719 18.7927 15.3438C18.7156 15.2136 18.5094 15.1365 18.2 14.9813Z" fill="#FCFCFC"/>
</g>
</g>
<defs>
<clipPath id="clip0_35_324">
<rect width="25" height="25" fill="white"/>
</clipPath>
</defs>
</svg>
